
      <svg data-logo="logo" xmlns="http://www.w3.org/2000/svg" viewBox="0 0 233 43">
        <g id="logogram" transform="translate(0, 1) rotate(0) "><path d="M0.754395 36.81C7.38184 36.81 12.7544 31.4374 12.7544 24.8101C12.7544 18.1826 7.38184 12.81 0.754395 12.81V21.21C2.74261 21.21 4.35437 22.8217 4.35437 24.8101C4.35437 26.7982 2.74261 28.41 0.754395 28.41V36.81Z" fill="#726BEA"/><path d="M40.7544 16.81C38.7038 16.1604 36.5201 15.8099 34.2544 15.8099C22.3802 15.8099 12.7544 25.4359 12.7544 37.3099C12.7544 38.5018 12.8514 39.671 13.0379 40.8099H26.3965C25.9196 39.7408 25.6545 38.5564 25.6545 37.3099C25.6545 32.5603 29.5048 28.7099 34.2544 28.7099C36.8503 28.7099 39.1775 29.8601 40.7544 31.6786V16.81Z" fill="#A5B4FC"/><path d="M2.86423 0.809967C3.85911 9.80987 11.4893 16.81 20.7544 16.81C30.0194 16.81 37.6496 9.80987 38.6445 0.809967H25.7718C24.9771 2.80219 23.0301 4.20996 20.7544 4.20996C18.4786 4.20996 16.5317 2.80219 15.7368 0.809967H2.86423Z" fill="#4F46E5"/></g>
        <g id="logotype" transform="translate(47, 8.5)"><path fill="#111111" d="M17.25 26L17.25 26L10.67 26L10.67 21.51L17.01 21.51Q19.47 21.51 21.13 20.63Q22.80 19.76 23.64 17.93Q24.47 16.10 24.47 13.25L24.47 13.25Q24.47 10.41 23.63 8.59Q22.78 6.77 21.13 5.90Q19.48 5.03 17.04 5.03L17.04 5.03L10.55 5.03L10.55 0.54L17.35 0.54Q21.18 0.54 23.94 2.07Q26.70 3.60 28.18 6.44Q29.67 9.29 29.67 13.25L29.67 13.25Q29.67 17.23 28.18 20.09Q26.70 22.94 23.91 24.47Q21.12 26 17.25 26ZM8.31 0.54L13.52 0.54L13.52 26L8.31 26L8.31 0.54ZM36.32 26L31.19 26L31.19 6.89L36.14 6.89L36.14 10.23L36.35 10.23Q36.88 8.45 38.12 7.54Q39.36 6.64 40.96 6.64L40.96 6.64Q41.36 6.64 41.81 6.68Q42.26 6.72 42.62 6.81L42.62 6.81L42.62 11.39Q42.28 11.27 41.63 11.20Q40.98 11.13 40.40 11.13L40.40 11.13Q39.24 11.13 38.30 11.64Q37.36 12.14 36.84 13.04Q36.32 13.93 36.32 15.13L36.32 15.13L36.32 26ZM48.50 26.38L48.50 26.38Q46.69 26.38 45.24 25.74Q43.80 25.09 42.97 23.82Q42.14 22.55 42.14 20.65L42.14 20.65Q42.14 19.06 42.73 17.98Q43.32 16.91 44.34 16.26Q45.35 15.61 46.64 15.27Q47.93 14.93 49.35 14.79L49.35 14.79Q51.01 14.62 52.03 14.47Q53.04 14.33 53.51 14.01Q53.98 13.70 53.98 13.08L53.98 13.08L53.98 12.99Q53.98 12.17 53.64 11.61Q53.30 11.05 52.63 10.75Q51.97 10.45 50.99 10.45L50.99 10.45Q50.00 10.45 49.27 10.75Q48.53 11.05 48.07 11.54Q47.61 12.04 47.39 12.65L47.39 12.65L42.69 11.87Q43.18 10.21 44.33 9.05Q45.47 7.88 47.17 7.27Q48.87 6.65 50.99 6.65L50.99 6.65Q52.55 6.65 54.00 7.02Q55.45 7.39 56.61 8.16Q57.76 8.93 58.44 10.16Q59.11 11.39 59.11 13.13L59.11 13.13L59.11 26L54.26 26L54.26 23.35L54.09 23.35Q53.63 24.24 52.86 24.91Q52.09 25.59 51.00 25.98Q49.92 26.38 48.50 26.38ZM49.95 22.77L49.95 22.77Q51.16 22.77 52.08 22.29Q52.99 21.81 53.51 20.99Q54.02 20.17 54.02 19.16L54.02 19.16L54.02 17.10Q53.80 17.27 53.33 17.40Q52.87 17.54 52.31 17.64Q51.75 17.75 51.20 17.83Q50.65 17.92 50.22 17.97L50.22 17.97Q49.28 18.10 48.57 18.41Q47.85 18.72 47.46 19.22Q47.06 19.73 47.06 20.51L47.06 20.51Q47.06 21.25 47.44 21.75Q47.81 22.26 48.46 22.51Q49.10 22.77 49.95 22.77ZM70.41 26L65.19 26L59.55 6.89L64.94 6.89L66.59 13.95Q67.02 15.85 67.52 18.08Q68.01 20.31 68.42 23.01L68.42 23.01L67.84 23.01Q68.29 20.38 68.82 18.14Q69.35 15.90 69.81 13.95L69.81 13.95L71.55 6.89L76.27 6.89L77.96 13.95Q78.40 15.88 78.93 18.11Q79.46 20.34 79.92 23.01L79.92 23.01L79.34 23.01Q79.75 20.36 80.22 18.13Q80.69 15.90 81.14 13.95L81.14 13.95L82.80 6.89L88.25 6.89L82.57 26L77.36 26L75.24 18.63Q74.93 17.52 74.63 16.18Q74.32 14.84 74.03 13.45Q73.74 12.05 73.43 10.84L73.43 10.84L74.34 10.84Q74.05 12.05 73.75 13.45Q73.45 14.84 73.14 16.19Q72.83 17.54 72.52 18.63L72.52 18.63L70.41 26ZM105.57 26L94.82 26L94.82 0.54L104.92 0.54Q107.73 0.54 109.60 1.38Q111.47 2.23 112.40 3.70Q113.33 5.17 113.33 7.08L113.33 7.08Q113.33 8.59 112.73 9.70Q112.13 10.82 111.10 11.53Q110.07 12.24 108.75 12.55L108.75 12.55L108.75 12.81Q110.19 12.86 111.46 13.62Q112.73 14.38 113.53 15.74Q114.32 17.10 114.32 18.99L114.32 18.99Q114.32 20.99 113.33 22.58Q112.34 24.17 110.40 25.09Q108.46 26 105.57 26L105.57 26ZM100.04 14.81L100.04 21.71L104.55 21.71Q106.84 21.71 107.90 20.82Q108.96 19.93 108.96 18.50L108.96 18.50Q108.96 17.40 108.43 16.57Q107.91 15.75 106.96 15.28Q106.00 14.81 104.68 14.81L104.68 14.81L100.04 14.81ZM100.04 4.79L100.04 11.23L104.15 11.23Q105.26 11.23 106.15 10.83Q107.04 10.43 107.55 9.69Q108.05 8.94 108.05 7.92L108.05 7.92Q108.05 6.53 107.07 5.66Q106.08 4.79 104.26 4.79L104.26 4.79L100.04 4.79ZM124.22 26.38L124.22 26.38Q121.29 26.38 119.17 25.18Q117.05 23.98 115.92 21.78Q114.78 19.57 114.78 16.55L114.78 16.55Q114.78 13.59 115.91 11.37Q117.04 9.15 119.11 7.90Q121.17 6.65 123.96 6.65L123.96 6.65Q125.84 6.65 127.46 7.25Q129.09 7.85 130.32 9.06Q131.55 10.26 132.24 12.07Q132.93 13.88 132.93 16.34L132.93 16.34L132.93 17.78L116.88 17.78L116.88 14.57L130.42 14.57L128.03 15.42Q128.03 13.93 127.57 12.83Q127.12 11.73 126.22 11.12Q125.33 10.52 123.99 10.52L123.99 10.52Q122.68 10.52 121.75 11.13Q120.81 11.75 120.34 12.80Q119.86 13.85 119.86 15.20L119.86 15.20L119.86 17.47Q119.86 19.13 120.41 20.26Q120.97 21.39 121.97 21.95Q122.97 22.51 124.30 22.51L124.30 22.51Q125.21 22.51 125.94 22.26Q126.68 22.00 127.20 21.50Q127.72 20.99 127.99 20.26L127.99 20.26L132.64 21.13Q132.18 22.70 131.03 23.89Q129.89 25.08 128.17 25.73Q126.45 26.38 124.22 26.38ZM132.31 6.89L143.64 6.89L143.64 10.81L132.31 10.81L132.31 6.89ZM134.95 20.86L134.95 2.35L140.07 2.35L140.07 20.41Q140.07 21.32 140.47 21.75Q140.88 22.19 141.82 22.19L141.82 22.19Q142.11 22.19 142.64 22.11Q143.17 22.04 143.44 21.97L143.44 21.97L144.17 25.81Q143.32 26.07 142.47 26.17Q141.63 26.27 140.86 26.27L140.86 26.27Q137.99 26.27 136.47 24.87Q134.95 23.47 134.95 20.86L134.95 20.86ZM142.86 6.89L154.19 6.89L154.19 10.81L142.86 10.81L142.86 6.89ZM145.49 20.86L145.49 2.35L150.61 2.35L150.61 20.41Q150.61 21.32 151.02 21.75Q151.42 22.19 152.36 22.19L152.36 22.19Q152.65 22.19 153.18 22.11Q153.71 22.04 153.98 21.97L153.98 21.97L154.72 25.81Q153.86 26.07 153.02 26.17Q152.17 26.27 151.40 26.27L151.40 26.27Q148.53 26.27 147.01 24.87Q145.49 23.47 145.49 20.86L145.49 20.86ZM163.87 26.38L163.87 26.38Q160.95 26.38 158.83 25.18Q156.71 23.98 155.58 21.78Q154.44 19.57 154.44 16.55L154.44 16.55Q154.44 13.59 155.57 11.37Q156.70 9.15 158.76 7.90Q160.83 6.65 163.62 6.65L163.62 6.65Q165.50 6.65 167.12 7.25Q168.75 7.85 169.98 9.06Q171.21 10.26 171.90 12.07Q172.59 13.88 172.59 16.34L172.59 16.34L172.59 17.78L156.54 17.78L156.54 14.57L170.08 14.57L167.69 15.42Q167.69 13.93 167.23 12.83Q166.78 11.73 165.88 11.12Q164.99 10.52 163.65 10.52L163.65 10.52Q162.34 10.52 161.41 11.13Q160.47 11.75 160.00 12.80Q159.52 13.85 159.52 15.20L159.52 15.20L159.52 17.47Q159.52 19.13 160.07 20.26Q160.63 21.39 161.63 21.95Q162.63 22.51 163.96 22.51L163.96 22.51Q164.87 22.51 165.60 22.26Q166.34 22.00 166.86 21.50Q167.38 20.99 167.65 20.26L167.65 20.26L172.30 21.13Q171.84 22.70 170.69 23.89Q169.55 25.08 167.83 25.73Q166.11 26.38 163.87 26.38ZM178.95 26L173.82 26L173.82 6.89L178.77 6.89L178.77 10.23L178.98 10.23Q179.51 8.45 180.75 7.54Q181.99 6.64 183.59 6.64L183.59 6.64Q183.99 6.64 184.44 6.68Q184.89 6.72 185.25 6.81L185.25 6.81L185.25 11.39Q184.91 11.27 184.26 11.20Q183.61 11.13 183.03 11.13L183.03 11.13Q181.87 11.13 180.93 11.64Q179.99 12.14 179.47 13.04Q178.95 13.93 178.95 15.13L178.95 15.13L178.95 26Z"/></g>
        
      </svg>
    